<mxfile host="app.diagrams.net" modified="2021-05-14T14:50:20.146Z" agent="5.0 (Windows NT 10.0; WOW64) AppleWebKit/537.36 (KHTML, like Gecko) Chrome/84.0.4147.89 Safari/537.36 SLBrowser/7.0.0.4071 SLBChan/3" etag="csBQh4dP54PD8crzg9KF" version="14.6.12" type="github">
  <diagram id="rs94XNYmqPKmVe25H6qm" name="Page-1">
    <mxGraphModel dx="716" dy="379" grid="0" gridSize="10" guides="1" tooltips="1" connect="1" arrows="1" fold="1" page="1" pageScale="1" pageWidth="827" pageHeight="1169" math="0" shadow="0">
      <root>
        <mxCell id="0" />
        <mxCell id="1" parent="0" />
        <mxCell id="uey2EIsfBGzdKvsssaFm-1" value="指令A" style="rounded=0;whiteSpace=wrap;html=1;" vertex="1" parent="1">
          <mxGeometry x="240" y="130" width="120" height="50" as="geometry" />
        </mxCell>
        <mxCell id="uey2EIsfBGzdKvsssaFm-2" value="异常处理器程序，通过硬件逐级查找页表，找到对应的页表项，写回到TLB中。若未找到，则发出Page Fault" style="rounded=0;whiteSpace=wrap;html=1;align=left;" vertex="1" parent="1">
          <mxGeometry x="400" y="190" width="120" height="90" as="geometry" />
        </mxCell>
        <mxCell id="uey2EIsfBGzdKvsssaFm-3" value="重新执行指令A" style="rounded=0;whiteSpace=wrap;html=1;" vertex="1" parent="1">
          <mxGeometry x="240" y="300" width="120" height="50" as="geometry" />
        </mxCell>
        <mxCell id="uey2EIsfBGzdKvsssaFm-4" value="下一条指令B" style="rounded=0;whiteSpace=wrap;html=1;" vertex="1" parent="1">
          <mxGeometry x="240" y="390" width="120" height="50" as="geometry" />
        </mxCell>
        <mxCell id="uey2EIsfBGzdKvsssaFm-6" value="" style="endArrow=classic;html=1;exitX=0.003;exitY=0.63;exitDx=0;exitDy=0;exitPerimeter=0;entryX=-0.025;entryY=0.63;entryDx=0;entryDy=0;entryPerimeter=0;" edge="1" parent="1" source="uey2EIsfBGzdKvsssaFm-1" target="uey2EIsfBGzdKvsssaFm-4">
          <mxGeometry width="50" height="50" relative="1" as="geometry">
            <mxPoint x="110" y="180" as="sourcePoint" />
            <mxPoint x="160" y="130" as="targetPoint" />
            <Array as="points">
              <mxPoint x="200" y="162" />
              <mxPoint x="200" y="421" />
            </Array>
          </mxGeometry>
        </mxCell>
        <mxCell id="uey2EIsfBGzdKvsssaFm-7" value="" style="endArrow=classic;html=1;exitX=1;exitY=0.5;exitDx=0;exitDy=0;entryX=0.5;entryY=0;entryDx=0;entryDy=0;" edge="1" parent="1" source="uey2EIsfBGzdKvsssaFm-1" target="uey2EIsfBGzdKvsssaFm-2">
          <mxGeometry width="50" height="50" relative="1" as="geometry">
            <mxPoint x="410" y="350" as="sourcePoint" />
            <mxPoint x="460" y="300" as="targetPoint" />
            <Array as="points">
              <mxPoint x="460" y="155" />
            </Array>
          </mxGeometry>
        </mxCell>
        <mxCell id="uey2EIsfBGzdKvsssaFm-9" value="" style="endArrow=classic;html=1;exitX=0.5;exitY=1;exitDx=0;exitDy=0;entryX=0.5;entryY=0;entryDx=0;entryDy=0;" edge="1" parent="1" source="uey2EIsfBGzdKvsssaFm-3" target="uey2EIsfBGzdKvsssaFm-4">
          <mxGeometry width="50" height="50" relative="1" as="geometry">
            <mxPoint x="410" y="350" as="sourcePoint" />
            <mxPoint x="460" y="300" as="targetPoint" />
          </mxGeometry>
        </mxCell>
        <mxCell id="uey2EIsfBGzdKvsssaFm-11" value="" style="endArrow=classic;html=1;exitX=0.5;exitY=1;exitDx=0;exitDy=0;entryX=1;entryY=0.5;entryDx=0;entryDy=0;" edge="1" parent="1" source="uey2EIsfBGzdKvsssaFm-2" target="uey2EIsfBGzdKvsssaFm-3">
          <mxGeometry width="50" height="50" relative="1" as="geometry">
            <mxPoint x="410" y="350" as="sourcePoint" />
            <mxPoint x="460" y="300" as="targetPoint" />
            <Array as="points">
              <mxPoint x="460" y="325" />
            </Array>
          </mxGeometry>
        </mxCell>
        <mxCell id="uey2EIsfBGzdKvsssaFm-12" value="TLB未命中" style="text;html=1;strokeColor=none;fillColor=none;align=center;verticalAlign=middle;whiteSpace=wrap;rounded=0;" vertex="1" parent="1">
          <mxGeometry x="380" y="130" width="60" height="20" as="geometry" />
        </mxCell>
        <mxCell id="uey2EIsfBGzdKvsssaFm-13" value="TLB命中" style="text;html=1;strokeColor=none;fillColor=none;align=center;verticalAlign=middle;whiteSpace=wrap;rounded=0;" vertex="1" parent="1">
          <mxGeometry x="140" y="190" width="60" height="20" as="geometry" />
        </mxCell>
      </root>
    </mxGraphModel>
  </diagram>
</mxfile>
